<svg width="16" height="16" viewBox="0 0 16 16" fill="none" xmlns="http://www.w3.org/2000/svg">
<path d="M8 15.5C3.85786 15.5 0.5 12.1421 0.5 8C0.5 3.85786 3.85786 0.5 8 0.5C12.1421 0.5 15.5 3.85786 15.5 8C15.5 12.1421 12.1421 15.5 8 15.5ZM8 14C11.3137 14 14 11.3137 14 8C14 4.68629 11.3137 2 8 2C4.68629 2 2 4.68629 2 8C2 11.3137 4.68629 14 8 14ZM7.25 10.25H8.75V11.75H7.25V10.25ZM8.75 9.01632V9.5H7.25V8.375C7.25 7.96077 7.58577 7.625 8 7.625C8.6213 7.625 9.125 7.1213 9.125 6.5C9.125 5.87868 8.6213 5.375 8 5.375C7.45423 5.375 6.9992 5.76367 6.8966 6.27933L5.42548 5.9851C5.66478 4.78189 6.7265 3.875 8 3.875C9.44975 3.875 10.625 5.05025 10.625 6.5C10.625 7.68913 9.83428 8.6936 8.75 9.01632Z" fill="#65789A"/>
</svg>
