<svg width="17" height="17" viewBox="0 0 17 17" fill="none" xmlns="http://www.w3.org/2000/svg">
<path d="M0.5 16.5C0.5 13.1863 3.18629 10.5 6.5 10.5C9.81373 10.5 12.5 13.1863 12.5 16.5H11C11 14.0147 8.98528 12 6.5 12C4.01472 12 2 14.0147 2 16.5H0.5ZM6.5 9.75C4.01375 9.75 2 7.73625 2 5.25C2 2.76375 4.01375 0.75 6.5 0.75C8.98625 0.75 11 2.76375 11 5.25C11 7.73625 8.98625 9.75 6.5 9.75ZM6.5 8.25C8.1575 8.25 9.5 6.9075 9.5 5.25C9.5 3.5925 8.1575 2.25 6.5 2.25C4.8425 2.25 3.5 3.5925 3.5 5.25C3.5 6.9075 4.8425 8.25 6.5 8.25ZM12.7128 11.0271C14.7983 11.9671 16.25 14.064 16.25 16.5H14.75C14.75 14.673 13.6612 13.1003 12.0971 12.3953L12.7128 11.0271ZM12.1972 2.55991C13.6958 3.17777 14.75 4.65271 14.75 6.375C14.75 8.52765 13.1032 10.2939 11 10.4832V8.97345C12.2725 8.79165 13.25 7.698 13.25 6.375C13.25 5.33951 12.6512 4.44452 11.7808 4.01726L12.1972 2.55991Z" fill="currentColor"/>
</svg>
