<svg width="14" height="17" viewBox="0 0 14 17" fill="none" xmlns="http://www.w3.org/2000/svg">
<path d="M6 10.5V12C3.51472 12 1.5 14.0147 1.5 16.5H0C0 13.1863 2.68629 10.5 6 10.5ZM6 9.75C3.51375 9.75 1.5 7.73625 1.5 5.25C1.5 2.76375 3.51375 0.75 6 0.75C8.48625 0.75 10.5 2.76375 10.5 5.25C10.5 7.73625 8.48625 9.75 6 9.75ZM6 8.25C7.6575 8.25 9 6.9075 9 5.25C9 3.5925 7.6575 2.25 6 2.25C4.3425 2.25 3 3.5925 3 5.25C3 6.9075 4.3425 8.25 6 8.25ZM7.94595 14.1086C7.89952 13.9133 7.875 13.7095 7.875 13.5C7.875 13.2905 7.89952 13.0868 7.94587 12.8915L7.20217 12.4621L7.95217 11.163L8.6964 11.5927C8.99122 11.3138 9.3507 11.1026 9.75 10.9837V10.125H11.25V10.9837C11.6493 11.1026 12.0087 11.3138 12.3035 11.5927L13.0478 11.1629L13.7979 12.462L13.0541 12.8914C13.1005 13.0868 13.125 13.2905 13.125 13.5C13.125 13.7095 13.1005 13.9132 13.0541 14.1085L13.7979 14.5379L13.0479 15.837L12.3036 15.4072C12.0088 15.6862 11.6494 15.8974 11.2501 16.0162V16.875H9.75007V16.0163C9.35077 15.8975 8.9913 15.6863 8.69648 15.4073L7.95225 15.8371L7.20217 14.538L7.94595 14.1086ZM10.5 14.625C11.1213 14.625 11.625 14.1213 11.625 13.5C11.625 12.8787 11.1213 12.375 10.5 12.375C9.8787 12.375 9.375 12.8787 9.375 13.5C9.375 14.1213 9.8787 14.625 10.5 14.625Z" fill="currentColor"/>
</svg>
