<svg width="16" height="17" viewBox="0 0 16 17" fill="none" xmlns="http://www.w3.org/2000/svg">
<path d="M14.0627 11.4003L14.9643 11.9413C15.1419 12.0479 15.1994 12.2782 15.0929 12.4558C15.0612 12.5086 15.0171 12.5528 14.9643 12.5844L8.38603 16.5313C8.14858 16.6739 7.8518 16.6739 7.61435 16.5313L1.03612 12.5844C0.858532 12.4778 0.800947 12.2475 0.907499 12.0699C0.939172 12.0171 0.983339 11.9729 1.03612 11.9413L1.93769 11.4003L8.00023 15.0378L14.0627 11.4003ZM14.0627 7.87532L14.9643 8.4163C15.1419 8.52287 15.1994 8.7532 15.0929 8.9308C15.0612 8.98359 15.0171 9.02777 14.9643 9.05942L8.00023 13.2378L1.03612 9.05942C0.858532 8.95285 0.800947 8.72252 0.907499 8.54492C0.939172 8.49212 0.983339 8.44795 1.03612 8.4163L1.93769 7.87532L8.00023 11.5128L14.0627 7.87532ZM8.38603 0.981875L14.9643 4.92879C15.1419 5.03535 15.1994 5.2657 15.0929 5.44329C15.0612 5.49607 15.0171 5.54025 14.9643 5.57191L8.00023 9.75032L1.03612 5.57191C0.858532 5.46536 0.800947 5.23501 0.907499 5.05742C0.939172 5.00463 0.983339 4.96047 1.03612 4.92879L7.61435 0.981875C7.8518 0.839375 8.14858 0.839375 8.38603 0.981875ZM8.00023 2.49964L3.41566 5.25036L8.00023 8.00109L12.5848 5.25036L8.00023 2.49964Z" fill="currentColor"/>
</svg>
