<svg width="16" height="16" viewBox="0 0 16 16" fill="none" xmlns="http://www.w3.org/2000/svg">
<path d="M1.50459 11.7493C1.18041 11.1878 0.937076 10.6018 0.770996 10.0047C1.50035 9.63257 1.99979 8.87424 1.99979 7.99929C1.99979 7.12502 1.5011 6.36714 0.772646 5.9947C1.10769 4.78653 1.74393 3.66135 2.64855 2.74165C3.33552 3.18726 4.24201 3.24065 4.99979 2.80314C5.75757 2.36564 6.16458 1.55391 6.12215 0.736174C7.37097 0.412594 8.66352 0.424174 9.87732 0.738109C9.83562 1.55519 10.2426 2.36598 10.9998 2.80314C11.7576 3.24063 12.664 3.18726 13.3509 2.7417C13.785 3.18404 14.1708 3.68778 14.495 4.2493C14.8191 4.81082 15.0625 5.39683 15.2286 5.99385C14.4992 6.366 13.9998 7.12434 13.9998 7.99929C13.9998 8.87364 14.4984 9.63144 15.2269 10.0039C14.8919 11.2121 14.2557 12.3372 13.351 13.2569C12.664 12.8114 11.7576 12.758 10.9998 13.1954C10.242 13.6329 9.83502 14.4447 9.8774 15.2624C8.62865 15.586 7.3361 15.5744 6.12225 15.2605C6.16393 14.4434 5.75697 13.6326 4.99979 13.1954C4.24203 12.758 3.33559 12.8113 2.64863 13.2569C2.21463 12.8145 1.82879 12.3108 1.50459 11.7493ZM5.74979 11.8964C6.56832 12.369 7.15617 13.1162 7.43772 13.9736C7.81145 14.0091 8.18765 14.0096 8.56145 13.9748C8.84285 13.1169 9.43085 12.3692 10.2498 11.8964C11.0687 11.4236 12.0102 11.2883 12.8939 11.4734C13.1109 11.1671 13.2986 10.841 13.4547 10.4996C12.8529 9.82712 12.4998 8.94444 12.4998 7.99929C12.4998 7.05414 12.8529 6.17154 13.4547 5.49902C13.3766 5.32952 13.2903 5.16281 13.1959 4.9993C13.1015 4.83579 13.0002 4.67775 12.8925 4.52546C12.0093 4.71021 11.0683 4.57475 10.2498 4.10218C9.43122 3.62961 8.84345 2.8824 8.56182 2.02506C8.18817 1.9895 7.8119 1.98899 7.43817 2.02383C7.1567 2.88168 6.5687 3.62937 5.74979 4.10218C4.93085 4.575 3.98934 4.71035 3.10571 4.52517C2.88864 4.83145 2.70097 5.15752 2.54492 5.49892C3.14661 6.17148 3.49979 7.05414 3.49979 7.99929C3.49979 8.94444 3.14662 9.82704 2.54492 10.4996C2.623 10.6691 2.70923 10.8358 2.80364 10.9993C2.89804 11.1628 2.9993 11.3208 3.10709 11.4731C3.99033 11.2884 4.93128 11.4239 5.74979 11.8964ZM7.99977 10.2493C6.75717 10.2493 5.74979 9.24197 5.74979 7.99929C5.74979 6.75669 6.75717 5.7493 7.99977 5.7493C9.24245 5.7493 10.2498 6.75669 10.2498 7.99929C10.2498 9.24197 9.24245 10.2493 7.99977 10.2493ZM7.99977 8.74929C8.414 8.74929 8.74977 8.41352 8.74977 7.99929C8.74977 7.58507 8.414 7.24929 7.99977 7.24929C7.58555 7.24929 7.24977 7.58507 7.24977 7.99929C7.24977 8.41352 7.58555 8.74929 7.99977 8.74929Z" fill="currentColor"/>
</svg>
