<svg width="14" height="14" viewBox="0 0 14 14" fill="none" xmlns="http://www.w3.org/2000/svg">
<path d="M3.32881 9.40758C4.1613 9.73758 4.75 10.55 4.75 11.5C4.75 12.7427 3.74264 13.75 2.5 13.75C1.25736 13.75 0.25 12.7427 0.25 11.5C0.25 10.5203 0.876108 9.68688 1.75 9.37803V4.62197C0.876108 4.3131 0.25 3.47967 0.25 2.5C0.25 1.25736 1.25736 0.25 2.5 0.25C3.74264 0.25 4.75 1.25736 4.75 2.5C4.75 3.47967 4.12389 4.3131 3.25 4.62197V6.9997C3.87674 6.52893 4.65579 6.25 5.5 6.25H8.5C9.53763 6.25 10.4111 5.54763 10.6712 4.59243C9.83867 4.26241 9.25 3.44996 9.25 2.5C9.25 1.25736 10.2573 0.25 11.5 0.25C12.7427 0.25 13.75 1.25736 13.75 2.5C13.75 3.4999 13.0977 4.34747 12.1956 4.64044C11.8917 6.40637 10.3527 7.75 8.5 7.75H5.5C4.4624 7.75 3.58884 8.45238 3.32881 9.40758ZM2.5 10.75C2.08579 10.75 1.75 11.0858 1.75 11.5C1.75 11.9142 2.08579 12.25 2.5 12.25C2.91421 12.25 3.25 11.9142 3.25 11.5C3.25 11.0858 2.91421 10.75 2.5 10.75ZM2.5 1.75C2.08579 1.75 1.75 2.08579 1.75 2.5C1.75 2.91421 2.08579 3.25 2.5 3.25C2.91421 3.25 3.25 2.91421 3.25 2.5C3.25 2.08579 2.91421 1.75 2.5 1.75ZM11.5 1.75C11.0858 1.75 10.75 2.08579 10.75 2.5C10.75 2.91421 11.0858 3.25 11.5 3.25C11.9142 3.25 12.25 2.91421 12.25 2.5C12.25 2.08579 11.9142 1.75 11.5 1.75Z" fill="#65789A"/>
</svg>
