<svg width="15" height="15" viewBox="0 0 15 15" fill="none" xmlns="http://www.w3.org/2000/svg">
<path d="M7.5 15C3.35786 15 0 11.6421 0 7.5C0 3.35786 3.35786 0 7.5 0C11.6421 0 15 3.35786 15 7.5C15 11.6421 11.6421 15 7.5 15ZM5.78252 13.2506C5.06057 11.7194 4.61799 10.0307 4.52048 8.25H1.54642C1.8435 10.6324 3.53729 12.581 5.78252 13.2506ZM6.02302 8.25C6.13582 10.0791 6.65835 11.7973 7.5 13.314C8.34165 11.7973 8.86417 10.0791 8.97698 8.25H6.02302ZM13.4536 8.25H10.4795C10.382 10.0307 9.93945 11.7194 9.2175 13.2506C11.4627 12.581 13.1565 10.6324 13.4536 8.25ZM1.54642 6.75H4.52048C4.61799 4.96933 5.06057 3.28055 5.78252 1.74942C3.53729 2.419 1.8435 4.36762 1.54642 6.75ZM6.02302 6.75H8.97698C8.86417 4.92092 8.34165 3.20269 7.5 1.68599C6.65835 3.20269 6.13582 4.92092 6.02302 6.75ZM9.2175 1.74942C9.93945 3.28055 10.382 4.96933 10.4795 6.75H13.4536C13.1565 4.36762 11.4627 2.419 9.2175 1.74942Z" fill="#65789A"/>
</svg>
